<svg xmlns="http://www.w3.org/2000/svg" xml:space="preserve" style="enable-background:new 0 0 800 400" viewBox="0 0 800 400"><path d="M367 23.4H123.7v140.9H99.1V42.2c0-10.2-8.6-18.8-18.8-18.8h-67v5.9h5.4c7.5 0 13.4 5.9 13.4 12.9v316.2c0 7-5.9 12.9-13.4 12.9h-5.4v5.4H99v-201h24.7v182.8c0 10.2 8 18.2 18.2 18.2h67v-5.4h-5.4c-7.5 0-13.4-5.9-13.4-12.9V29.3H214.3c7.5 0 13.4 5.9 13.4 12.9v316.2c0 10.2 8.6 18.2 18.8 18.2H367c10.7 0 18.8-8 18.8-18.2V42.2c0-10.2-8-18.8-18.8-18.8zm-47.7 347.8h-11.8c-7 0-12.9-5.9-12.9-12.9v-329h11.3c7.5 0 13.4 5.9 13.4 12.9v329zM786.7 29.3v-5.9h-85.2v140.9h-24.7V42.2c0-10.2-8.6-18.8-18.8-18.8H433c-10.2 0-18.8 8.6-18.8 19.3v315.7c0 7-5.9 12.9-12.9 12.9h-5.9v5.4h67c10.2 0 18.8-8 18.8-18.2V175.6h24.7v201h170.9v-201h24.7v182.8c0 10.2 8 18.2 18.2 18.2h67v-5.4h-5.4c-7.5 0-13.4-5.9-13.4-12.9v-329h18.8zM505.8 164.4h-24.7V42.7c0-7.5 5.9-13.4 12.9-13.4h11.8v135.1zm104 194c0 7-5.9 12.9-13.4 12.9h-11.3c-7 0-12.9-5.9-12.9-12.9V29.3H596.4c7.5 0 13.4 5.9 13.4 12.9v316.2z"/></svg>