<?xml version="1.0" standalone="no"?>
<!DOCTYPE svg PUBLIC "-//W3C//DTD SVG 20010904//EN"
 "http://www.w3.org/TR/2001/REC-SVG-20010904/DTD/svg10.dtd">
<svg version="1.0" xmlns="http://www.w3.org/2000/svg"
 width="500.000000pt" height="500.000000pt" viewBox="0 0 500.000000 500.000000"
 preserveAspectRatio="xMidYMid meet">
<metadata>
Created by potrace 1.14, written by Peter Selinger 2001-2017
</metadata>
<g transform="translate(0.000000,500.000000) scale(0.100000,-0.100000)"
fill="#000000" stroke="none">
<path d="M1086 3123 c-12 -12 -6 -23 13 -23 10 0 24 -6 30 -13 8 -10 11 -176
11 -573 1 -307 1 -569 0 -581 0 -12 -10 -31 -22 -43 l-22 -20 147 0 147 0 0
350 0 350 25 6 c55 14 54 23 57 -341 3 -320 4 -337 22 -351 15 -10 52 -14 137
-14 l117 0 -19 50 c-18 48 -19 80 -17 613 l3 562 28 3 c15 2 27 8 27 13 0 5
-64 9 -150 9 l-150 0 0 -245 0 -245 -40 0 -40 0 0 205 c0 249 -5 271 -72 279
-82 10 -225 16 -232 9z"/>
<path d="M1845 3120 c-16 -4 -22 -8 -13 -9 9 0 24 -11 32 -23 14 -20 16 -93
16 -600 0 -565 0 -578 20 -598 19 -19 33 -20 264 -20 209 0 247 2 260 16 14
14 16 82 16 604 0 564 -1 589 -19 611 l-19 24 -264 2 c-144 1 -276 -2 -293 -7z
m336 -30 c18 -10 19 -28 19 -605 l0 -595 -30 0 c-19 0 -33 7 -40 19 -6 13 -10
221 -10 605 0 586 0 586 21 586 11 0 29 -5 40 -10z"/>
<path d="M2646 3120 c-48 -9 -66 -32 -66 -84 -1 -23 -3 -278 -5 -567 -4 -444
-7 -531 -20 -562 l-15 -37 120 0 c175 0 160 -35 160 376 l0 335 38 -3 37 -3 5
-350 5 -350 138 -3 c75 -1 137 -1 137 1 0 3 -9 25 -20 50 -20 44 -20 63 -18
609 l3 563 28 3 c39 5 33 18 -10 26 -52 8 -469 5 -517 -4z m254 -255 l0 -235
-40 0 -40 0 0 219 c0 238 3 251 56 251 l24 0 0 -235z"/>
<path d="M3246 3114 c-3 -9 1 -14 14 -14 10 0 26 -10 34 -22 14 -20 16 -90 16
-565 0 -509 -1 -546 -19 -593 l-19 -50 139 0 139 0 0 350 0 350 46 0 45 0 -2
-337 c-2 -315 -1 -337 17 -350 12 -9 53 -13 136 -13 l118 0 -17 38 c-15 33
-18 93 -21 594 -2 395 0 563 8 577 6 12 20 21 30 21 11 0 20 5 20 10 0 6 -57
10 -150 10 l-150 0 0 -245 0 -245 -40 0 -40 0 0 213 c0 148 -4 219 -13 236
-15 31 -43 37 -179 44 -87 5 -107 3 -112 -9z"/>
</g>
</svg>
