<?xml version="1.0" standalone="no"?>
<!DOCTYPE svg PUBLIC "-//W3C//DTD SVG 20010904//EN"
 "http://www.w3.org/TR/2001/REC-SVG-20010904/DTD/svg10.dtd">
<svg version="1.0" xmlns="http://www.w3.org/2000/svg"
 width="512.000000pt" height="512.000000pt" viewBox="0 0 512.000000 512.000000"
 preserveAspectRatio="xMidYMid meet">
<metadata>
Created by potrace 1.14, written by Peter Selinger 2001-2017
</metadata>
<g transform="translate(0.000000,512.000000) scale(0.100000,-0.100000)"
fill="#000000" stroke="none">
<path d="M607 3454 c-16 -16 -6 -34 21 -34 33 0 45 -8 61 -37 16 -31 16 -1625
0 -1656 -16 -29 -28 -37 -61 -37 -18 0 -28 -5 -28 -15 0 -13 31 -15 220 -15
l220 0 0 510 0 510 60 0 59 0 3 -486 3 -486 28 -24 c28 -24 32 -24 218 -24
161 0 189 2 189 15 0 10 -10 15 -29 15 -20 0 -36 9 -50 26 -21 27 -21 32 -21
865 l0 839 73 0 c125 0 111 101 117 -870 l5 -842 28 -24 28 -24 344 0 344 0
28 24 28 24 2 834 c2 653 0 838 -10 858 -7 14 -28 33 -47 43 -32 16 -81 17
-655 15 l-620 -3 -3 -357 -2 -358 -60 0 -60 0 0 325 0 325 -29 32 -29 33 -184
3 c-101 2 -186 0 -191 -4z m1532 -60 c21 -27 21 -32 21 -865 l0 -839 -42 0
c-24 0 -49 7 -60 17 -17 15 -18 55 -18 865 l0 848 39 0 c31 0 44 -6 60 -26z"/>
<path d="M2713 3453 c-12 -2 -34 -18 -48 -34 l-25 -31 0 -829 c0 -816 0 -829
-20 -849 -11 -11 -33 -20 -50 -20 -20 0 -30 -5 -30 -15 0 -13 28 -15 191 -15
l191 0 29 29 29 29 0 481 0 481 60 0 60 0 0 -510 0 -510 440 0 440 0 0 510 0
510 60 0 60 0 0 -484 0 -483 26 -27 27 -26 188 0 c161 0 189 2 189 15 0 9 -9
15 -25 15 -14 0 -34 9 -45 20 -20 20 -20 33 -20 865 l0 845 45 0 c38 0 45 3
45 20 0 19 -7 20 -215 20 l-215 0 0 -360 0 -360 -60 0 -60 0 0 310 c0 250 -3
317 -15 346 -27 65 -18 64 -657 63 -315 -1 -583 -4 -595 -6z m387 -373 l0
-340 -60 0 -60 0 0 318 c0 306 1 319 20 340 15 16 33 22 60 22 l40 0 0 -340z
m508 324 l22 -15 0 -834 0 -834 -22 -15 c-30 -22 -116 -21 -140 1 -17 15 -18
55 -18 865 l0 848 68 0 c45 0 75 -5 90 -16z"/>
</g>
</svg>
